<svg width="180" height="150" viewBox="0 0 180 150" fill="none" xmlns="http://www.w3.org/2000/svg">
<path d="M138.878 124.115C125.787 137.194 108.4 144.4 89.8969 144.4C51.734 144.4 20.6797 113.363 20.6435 75.2125L34.7665 89.3536C35.7026 90.2837 37.2088 90.2837 38.1439 89.3536C39.0679 88.4175 39.0679 86.9063 38.1439 85.9762L19.4209 67.2451L0.701832 85.9762C-0.23427 86.9063 -0.23427 88.4185 0.701832 89.3536C1.16335 89.8212 1.77568 90.0494 2.38199 90.0494C3.00036 90.0494 3.61169 89.8151 4.06818 89.3536L15.959 77.4568C17.2008 117.204 49.8326 149.176 89.8738 149.176C109.655 149.176 128.247 141.473 142.238 127.487C143.168 126.557 143.168 125.045 142.238 124.116C141.332 123.179 139.814 123.179 138.878 124.115Z" fill="black"/>
<path d="M179.297 60.6462C178.373 59.7162 176.861 59.7162 175.926 60.6462L164.046 72.537C162.792 32.7894 130.16 0.824219 90.1252 0.824219C70.3323 0.824219 51.746 8.5272 37.7547 22.5124C36.8186 23.4425 36.8186 24.9547 37.7547 25.8838C38.6788 26.8199 40.1971 26.8199 41.1261 25.8838C54.2114 12.8045 71.6042 5.59924 90.1071 5.59924C128.264 5.59924 159.324 36.6294 159.373 74.7863L145.238 60.6452C144.307 59.7152 142.795 59.7152 141.86 60.6452C140.936 61.5813 140.936 63.0926 141.86 64.0227L160.585 82.7477L179.304 64.0227C180.233 63.0936 180.233 61.5813 179.297 60.6462Z" fill="black"/>
</svg>
