<svg width="80" height="80" viewBox="0 0 80 80" fill="none" xmlns="http://www.w3.org/2000/svg">
<path d="M35.3125 60.9375H44.6875V80H35.3125V60.9375Z" fill="#0174FF"/>
<path d="M18.9098 80H30.625V56.25H49.375V80H61.1457V0H18.9098V80ZM51.7187 9.375H56.4062V14.0625H51.7187V9.375ZM51.7187 18.75H56.4062V23.4375H51.7187V18.75ZM51.7187 28.125H56.4062V32.8125H51.7187V28.125ZM51.7187 37.5H56.4062V42.1875H51.7187V37.5ZM51.7187 46.875H56.4062V51.5625H51.7187V46.875ZM42.3437 9.375H47.0312V14.0625H42.3437V9.375ZM42.3437 18.75H47.0312V23.4375H42.3437V18.75ZM42.3437 28.125H47.0312V32.8125H42.3437V28.125ZM42.3437 37.5H47.0312V42.1875H42.3437V37.5ZM42.3437 46.875H47.0312V51.5625H42.3437V46.875ZM32.9687 9.375H37.6562V14.0625H32.9687V9.375ZM32.9687 18.75H37.6562V23.4375H32.9687V18.75ZM32.9687 28.125H37.6562V32.8125H32.9687V28.125ZM32.9687 37.5H37.6562V42.1875H32.9687V37.5ZM32.9687 46.875H37.6562V51.5625H32.9687V46.875ZM23.5937 9.375H28.2812V14.0625H23.5937V9.375ZM23.5937 18.75H28.2812V23.4375H23.5937V18.75ZM23.5937 28.125H28.2812V32.8125H23.5937V28.125ZM23.5937 37.5H28.2812V42.1875H23.5937V37.5ZM23.5937 46.875H28.2812V51.5625H23.5937V46.875Z" fill="#0174FF"/>
<path d="M65.7245 18.75H80V80H65.7245V18.75Z" fill="#0174FF"/>
<path d="M0 18.75H14.2181V80H0V18.75Z" fill="#0174FF"/>
</svg>
